<?xml version="1.0" encoding="utf-8" standalone="no"?>
<!DOCTYPE svg PUBLIC "-//W3C//DTD SVG 1.1//EN"
  "http://www.w3.org/Graphics/SVG/1.1/DTD/svg11.dtd">
<svg xmlns:xlink="http://www.w3.org/1999/xlink" width="720pt" height="288pt" viewBox="0 0 720 288" xmlns="http://www.w3.org/2000/svg" version="1.1">
 <metadata>
  <rdf:RDF xmlns:dc="http://purl.org/dc/elements/1.1/" xmlns:cc="http://creativecommons.org/ns#" xmlns:rdf="http://www.w3.org/1999/02/22-rdf-syntax-ns#">
   <cc:Work>
    <dc:type rdf:resource="http://purl.org/dc/dcmitype/StillImage"/>
    <dc:date>1980-01-01T00:00:00+00:00</dc:date>
    <dc:format>image/svg+xml</dc:format>
    <dc:creator>
     <cc:Agent>
      <dc:title>Matplotlib v3.10.1, https://matplotlib.org/</dc:title>
     </cc:Agent>
    </dc:creator>
   </cc:Work>
  </rdf:RDF>
 </metadata>
 <defs>
  <style type="text/css">*{stroke-linejoin: round; stroke-linecap: butt}</style>
 </defs>
 <g id="figure_1">
  <g id="patch_1">
   <path d="M 0 288 
L 720 288 
L 720 0 
L 0 0 
z
" style="fill: #ffffff"/>
  </g>
  <g id="axes_1">
   <g id="patch_2">
    <path d="M 44.66 260.12 
L 668.95 260.12 
L 668.95 67.4352 
L 44.66 67.4352 
z
" style="fill: #ffffff"/>
   </g>
   <g id="patch_3">
    <path d="M 73.036818 260.12 
L 96.684167 260.12 
L 96.684167 138.286535 
L 73.036818 138.286535 
z
" clip-path="url(#pa8cdb94fa6)" style="fill: #1f77b4; stroke: #333333; stroke-linejoin: miter"/>
   </g>
   <g id="patch_4">
    <path d="M 191.273561 260.12 
L 214.920909 260.12 
L 214.920909 138.847044 
L 191.273561 138.847044 
z
" clip-path="url(#pa8cdb94fa6)" style="fill: #1f77b4; stroke: #333333; stroke-linejoin: miter"/>
   </g>
   <g id="patch_5">
    <path d="M 309.510303 260.12 
L 333.157652 260.12 
L 333.157652 139.177293 
L 309.510303 139.177293 
z
" clip-path="url(#pa8cdb94fa6)" style="fill: #1f77b4; stroke: #333333; stroke-linejoin: miter"/>
   </g>
   <g id="patch_6">
    <path d="M 427.747045 260.12 
L 451.394394 260.12 
L 451.394394 139.245081 
L 427.747045 139.245081 
z
" clip-path="url(#pa8cdb94fa6)" style="fill: #1f77b4; stroke: #333333; stroke-linejoin: miter"/>
   </g>
   <g id="patch_7">
    <path d="M 545.983788 260.12 
L 569.631136 260.12 
L 569.631136 138.638032 
L 545.983788 138.638032 
z
" clip-path="url(#pa8cdb94fa6)" style="fill: #1f77b4; stroke: #333333; stroke-linejoin: miter"/>
   </g>
   <g id="patch_8">
    <path d="M 96.684167 260.12 
L 120.331515 260.12 
L 120.331515 76.610667 
L 96.684167 76.610667 
z
" clip-path="url(#pa8cdb94fa6)" style="fill: #ff7f0e; stroke: #333333; stroke-linejoin: miter"/>
   </g>
   <g id="patch_9">
    <path d="M 214.920909 260.12 
L 238.568258 260.12 
L 238.568258 76.711299 
L 214.920909 76.711299 
z
" clip-path="url(#pa8cdb94fa6)" style="fill: #ff7f0e; stroke: #333333; stroke-linejoin: miter"/>
   </g>
   <g id="patch_10">
    <path d="M 333.157652 260.12 
L 356.805 260.12 
L 356.805 83.017649 
L 333.157652 83.017649 
z
" clip-path="url(#pa8cdb94fa6)" style="fill: #ff7f0e; stroke: #333333; stroke-linejoin: miter"/>
   </g>
   <g id="patch_11">
    <path d="M 451.394394 260.12 
L 475.041742 260.12 
L 475.041742 82.226519 
L 451.394394 82.226519 
z
" clip-path="url(#pa8cdb94fa6)" style="fill: #ff7f0e; stroke: #333333; stroke-linejoin: miter"/>
   </g>
   <g id="patch_12">
    <path d="M 569.631136 260.12 
L 593.278485 260.12 
L 593.278485 87.533064 
L 569.631136 87.533064 
z
" clip-path="url(#pa8cdb94fa6)" style="fill: #ff7f0e; stroke: #333333; stroke-linejoin: miter"/>
   </g>
   <g id="patch_13">
    <path d="M 120.331515 260.12 
L 143.978864 260.12 
L 143.978864 183.254624 
L 120.331515 183.254624 
z
" clip-path="url(#pa8cdb94fa6)" style="fill: #2ca02c; stroke: #333333; stroke-linejoin: miter"/>
   </g>
   <g id="patch_14">
    <path d="M 238.568258 260.12 
L 262.215606 260.12 
L 262.215606 166.08223 
L 238.568258 166.08223 
z
" clip-path="url(#pa8cdb94fa6)" style="fill: #2ca02c; stroke: #333333; stroke-linejoin: miter"/>
   </g>
   <g id="patch_15">
    <path d="M 356.805 260.12 
L 380.452348 260.12 
L 380.452348 170.087804 
L 356.805 170.087804 
z
" clip-path="url(#pa8cdb94fa6)" style="fill: #2ca02c; stroke: #333333; stroke-linejoin: miter"/>
   </g>
   <g id="patch_16">
    <path d="M 475.041742 260.12 
L 498.689091 260.12 
L 498.689091 189.272079 
L 475.041742 189.272079 
z
" clip-path="url(#pa8cdb94fa6)" style="fill: #2ca02c; stroke: #333333; stroke-linejoin: miter"/>
   </g>
   <g id="patch_17">
    <path d="M 593.278485 260.12 
L 616.925833 260.12 
L 616.925833 201.75599 
L 593.278485 201.75599 
z
" clip-path="url(#pa8cdb94fa6)" style="fill: #2ca02c; stroke: #333333; stroke-linejoin: miter"/>
   </g>
   <g id="patch_18">
    <path d="M 143.978864 260.12 
L 167.626212 260.12 
L 167.626212 212.122227 
L 143.978864 212.122227 
z
" clip-path="url(#pa8cdb94fa6)" style="fill: #d62728; stroke: #333333; stroke-linejoin: miter"/>
   </g>
   <g id="patch_19">
    <path d="M 262.215606 260.12 
L 285.862955 260.12 
L 285.862955 187.283533 
L 262.215606 187.283533 
z
" clip-path="url(#pa8cdb94fa6)" style="fill: #d62728; stroke: #333333; stroke-linejoin: miter"/>
   </g>
   <g id="patch_20">
    <path d="M 380.452348 260.12 
L 404.099697 260.12 
L 404.099697 189.773115 
L 380.452348 189.773115 
z
" clip-path="url(#pa8cdb94fa6)" style="fill: #d62728; stroke: #333333; stroke-linejoin: miter"/>
   </g>
   <g id="patch_21">
    <path d="M 498.689091 260.12 
L 522.336439 260.12 
L 522.336439 198.7894 
L 498.689091 198.7894 
z
" clip-path="url(#pa8cdb94fa6)" style="fill: #d62728; stroke: #333333; stroke-linejoin: miter"/>
   </g>
   <g id="patch_22">
    <path d="M 616.925833 260.12 
L 640.573182 260.12 
L 640.573182 210.527256 
L 616.925833 210.527256 
z
" clip-path="url(#pa8cdb94fa6)" style="fill: #d62728; stroke: #333333; stroke-linejoin: miter"/>
   </g>
   <g id="matplotlib.axis_1">
    <g id="xtick_1">
     <g id="line2d_1">
      <defs>
       <path id="mc34d55341a" d="M 0 0 
L 0 3.5 
" style="stroke: #000000; stroke-width: 0.8"/>
      </defs>
      <g>
       <use xlink:href="#mc34d55341a" x="120.331515" y="260.12" style="stroke: #000000; stroke-width: 0.8"/>
      </g>
     </g>
     <g id="text_1">
      <!-- conns = 1 -->
      <g transform="translate(95.031515 274.718437) scale(0.1 -0.1)">
       <defs>
        <path id="DejaVuSans-63" d="M 3122 3366 
L 3122 2828 
Q 2878 2963 2633 3030 
Q 2388 3097 2138 3097 
Q 1578 3097 1268 2742 
Q 959 2388 959 1747 
Q 959 1106 1268 751 
Q 1578 397 2138 397 
Q 2388 397 2633 464 
Q 2878 531 3122 666 
L 3122 134 
Q 2881 22 2623 -34 
Q 2366 -91 2075 -91 
Q 1284 -91 818 406 
Q 353 903 353 1747 
Q 353 2603 823 3093 
Q 1294 3584 2113 3584 
Q 2378 3584 2631 3529 
Q 2884 3475 3122 3366 
z
" transform="scale(0.015625)"/>
        <path id="DejaVuSans-6f" d="M 1959 3097 
Q 1497 3097 1228 2736 
Q 959 2375 959 1747 
Q 959 1119 1226 758 
Q 1494 397 1959 397 
Q 2419 397 2687 759 
Q 2956 1122 2956 1747 
Q 2956 2369 2687 2733 
Q 2419 3097 1959 3097 
z
M 1959 3584 
Q 2709 3584 3137 3096 
Q 3566 2609 3566 1747 
Q 3566 888 3137 398 
Q 2709 -91 1959 -91 
Q 1206 -91 779 398 
Q 353 888 353 1747 
Q 353 2609 779 3096 
Q 1206 3584 1959 3584 
z
" transform="scale(0.015625)"/>
        <path id="DejaVuSans-6e" d="M 3513 2113 
L 3513 0 
L 2938 0 
L 2938 2094 
Q 2938 2591 2744 2837 
Q 2550 3084 2163 3084 
Q 1697 3084 1428 2787 
Q 1159 2491 1159 1978 
L 1159 0 
L 581 0 
L 581 3500 
L 1159 3500 
L 1159 2956 
Q 1366 3272 1645 3428 
Q 1925 3584 2291 3584 
Q 2894 3584 3203 3211 
Q 3513 2838 3513 2113 
z
" transform="scale(0.015625)"/>
        <path id="DejaVuSans-73" d="M 2834 3397 
L 2834 2853 
Q 2591 2978 2328 3040 
Q 2066 3103 1784 3103 
Q 1356 3103 1142 2972 
Q 928 2841 928 2578 
Q 928 2378 1081 2264 
Q 1234 2150 1697 2047 
L 1894 2003 
Q 2506 1872 2764 1633 
Q 3022 1394 3022 966 
Q 3022 478 2636 193 
Q 2250 -91 1575 -91 
Q 1294 -91 989 -36 
Q 684 19 347 128 
L 347 722 
Q 666 556 975 473 
Q 1284 391 1588 391 
Q 1994 391 2212 530 
Q 2431 669 2431 922 
Q 2431 1156 2273 1281 
Q 2116 1406 1581 1522 
L 1381 1569 
Q 847 1681 609 1914 
Q 372 2147 372 2553 
Q 372 3047 722 3315 
Q 1072 3584 1716 3584 
Q 2034 3584 2315 3537 
Q 2597 3491 2834 3397 
z
" transform="scale(0.015625)"/>
        <path id="DejaVuSans-20" transform="scale(0.015625)"/>
        <path id="DejaVuSans-3d" d="M 678 2906 
L 4684 2906 
L 4684 2381 
L 678 2381 
L 678 2906 
z
M 678 1631 
L 4684 1631 
L 4684 1100 
L 678 1100 
L 678 1631 
z
" transform="scale(0.015625)"/>
        <path id="DejaVuSans-31" d="M 794 531 
L 1825 531 
L 1825 4091 
L 703 3866 
L 703 4441 
L 1819 4666 
L 2450 4666 
L 2450 531 
L 3481 531 
L 3481 0 
L 794 0 
L 794 531 
z
" transform="scale(0.015625)"/>
       </defs>
       <use xlink:href="#DejaVuSans-63"/>
       <use xlink:href="#DejaVuSans-6f" transform="translate(54.980469 0)"/>
       <use xlink:href="#DejaVuSans-6e" transform="translate(116.162109 0)"/>
       <use xlink:href="#DejaVuSans-6e" transform="translate(179.541016 0)"/>
       <use xlink:href="#DejaVuSans-73" transform="translate(242.919922 0)"/>
       <use xlink:href="#DejaVuSans-20" transform="translate(295.019531 0)"/>
       <use xlink:href="#DejaVuSans-3d" transform="translate(326.806641 0)"/>
       <use xlink:href="#DejaVuSans-20" transform="translate(410.595703 0)"/>
       <use xlink:href="#DejaVuSans-31" transform="translate(442.382812 0)"/>
      </g>
     </g>
    </g>
    <g id="xtick_2">
     <g id="line2d_2">
      <g>
       <use xlink:href="#mc34d55341a" x="238.568258" y="260.12" style="stroke: #000000; stroke-width: 0.8"/>
      </g>
     </g>
     <g id="text_2">
      <!-- conns = 8 -->
      <g transform="translate(213.268258 274.718437) scale(0.1 -0.1)">
       <defs>
        <path id="DejaVuSans-38" d="M 2034 2216 
Q 1584 2216 1326 1975 
Q 1069 1734 1069 1313 
Q 1069 891 1326 650 
Q 1584 409 2034 409 
Q 2484 409 2743 651 
Q 3003 894 3003 1313 
Q 3003 1734 2745 1975 
Q 2488 2216 2034 2216 
z
M 1403 2484 
Q 997 2584 770 2862 
Q 544 3141 544 3541 
Q 544 4100 942 4425 
Q 1341 4750 2034 4750 
Q 2731 4750 3128 4425 
Q 3525 4100 3525 3541 
Q 3525 3141 3298 2862 
Q 3072 2584 2669 2484 
Q 3125 2378 3379 2068 
Q 3634 1759 3634 1313 
Q 3634 634 3220 271 
Q 2806 -91 2034 -91 
Q 1263 -91 848 271 
Q 434 634 434 1313 
Q 434 1759 690 2068 
Q 947 2378 1403 2484 
z
M 1172 3481 
Q 1172 3119 1398 2916 
Q 1625 2713 2034 2713 
Q 2441 2713 2670 2916 
Q 2900 3119 2900 3481 
Q 2900 3844 2670 4047 
Q 2441 4250 2034 4250 
Q 1625 4250 1398 4047 
Q 1172 3844 1172 3481 
z
" transform="scale(0.015625)"/>
       </defs>
       <use xlink:href="#DejaVuSans-63"/>
       <use xlink:href="#DejaVuSans-6f" transform="translate(54.980469 0)"/>
       <use xlink:href="#DejaVuSans-6e" transform="translate(116.162109 0)"/>
       <use xlink:href="#DejaVuSans-6e" transform="translate(179.541016 0)"/>
       <use xlink:href="#DejaVuSans-73" transform="translate(242.919922 0)"/>
       <use xlink:href="#DejaVuSans-20" transform="translate(295.019531 0)"/>
       <use xlink:href="#DejaVuSans-3d" transform="translate(326.806641 0)"/>
       <use xlink:href="#DejaVuSans-20" transform="translate(410.595703 0)"/>
       <use xlink:href="#DejaVuSans-38" transform="translate(442.382812 0)"/>
      </g>
     </g>
    </g>
    <g id="xtick_3">
     <g id="line2d_3">
      <g>
       <use xlink:href="#mc34d55341a" x="356.805" y="260.12" style="stroke: #000000; stroke-width: 0.8"/>
      </g>
     </g>
     <g id="text_3">
      <!-- conns = 32 -->
      <g transform="translate(328.32375 274.718437) scale(0.1 -0.1)">
       <defs>
        <path id="DejaVuSans-33" d="M 2597 2516 
Q 3050 2419 3304 2112 
Q 3559 1806 3559 1356 
Q 3559 666 3084 287 
Q 2609 -91 1734 -91 
Q 1441 -91 1130 -33 
Q 819 25 488 141 
L 488 750 
Q 750 597 1062 519 
Q 1375 441 1716 441 
Q 2309 441 2620 675 
Q 2931 909 2931 1356 
Q 2931 1769 2642 2001 
Q 2353 2234 1838 2234 
L 1294 2234 
L 1294 2753 
L 1863 2753 
Q 2328 2753 2575 2939 
Q 2822 3125 2822 3475 
Q 2822 3834 2567 4026 
Q 2313 4219 1838 4219 
Q 1578 4219 1281 4162 
Q 984 4106 628 3988 
L 628 4550 
Q 988 4650 1302 4700 
Q 1616 4750 1894 4750 
Q 2613 4750 3031 4423 
Q 3450 4097 3450 3541 
Q 3450 3153 3228 2886 
Q 3006 2619 2597 2516 
z
" transform="scale(0.015625)"/>
        <path id="DejaVuSans-32" d="M 1228 531 
L 3431 531 
L 3431 0 
L 469 0 
L 469 531 
Q 828 903 1448 1529 
Q 2069 2156 2228 2338 
Q 2531 2678 2651 2914 
Q 2772 3150 2772 3378 
Q 2772 3750 2511 3984 
Q 2250 4219 1831 4219 
Q 1534 4219 1204 4116 
Q 875 4013 500 3803 
L 500 4441 
Q 881 4594 1212 4672 
Q 1544 4750 1819 4750 
Q 2544 4750 2975 4387 
Q 3406 4025 3406 3419 
Q 3406 3131 3298 2873 
Q 3191 2616 2906 2266 
Q 2828 2175 2409 1742 
Q 1991 1309 1228 531 
z
" transform="scale(0.015625)"/>
       </defs>
       <use xlink:href="#DejaVuSans-63"/>
       <use xlink:href="#DejaVuSans-6f" transform="translate(54.980469 0)"/>
       <use xlink:href="#DejaVuSans-6e" transform="translate(116.162109 0)"/>
       <use xlink:href="#DejaVuSans-6e" transform="translate(179.541016 0)"/>
       <use xlink:href="#DejaVuSans-73" transform="translate(242.919922 0)"/>
       <use xlink:href="#DejaVuSans-20" transform="translate(295.019531 0)"/>
       <use xlink:href="#DejaVuSans-3d" transform="translate(326.806641 0)"/>
       <use xlink:href="#DejaVuSans-20" transform="translate(410.595703 0)"/>
       <use xlink:href="#DejaVuSans-33" transform="translate(442.382812 0)"/>
       <use xlink:href="#DejaVuSans-32" transform="translate(506.005859 0)"/>
      </g>
     </g>
    </g>
    <g id="xtick_4">
     <g id="line2d_4">
      <g>
       <use xlink:href="#mc34d55341a" x="475.041742" y="260.12" style="stroke: #000000; stroke-width: 0.8"/>
      </g>
     </g>
     <g id="text_4">
      <!-- conns = 128 -->
      <g transform="translate(443.379242 274.718437) scale(0.1 -0.1)">
       <use xlink:href="#DejaVuSans-63"/>
       <use xlink:href="#DejaVuSans-6f" transform="translate(54.980469 0)"/>
       <use xlink:href="#DejaVuSans-6e" transform="translate(116.162109 0)"/>
       <use xlink:href="#DejaVuSans-6e" transform="translate(179.541016 0)"/>
       <use xlink:href="#DejaVuSans-73" transform="translate(242.919922 0)"/>
       <use xlink:href="#DejaVuSans-20" transform="translate(295.019531 0)"/>
       <use xlink:href="#DejaVuSans-3d" transform="translate(326.806641 0)"/>
       <use xlink:href="#DejaVuSans-20" transform="translate(410.595703 0)"/>
       <use xlink:href="#DejaVuSans-31" transform="translate(442.382812 0)"/>
       <use xlink:href="#DejaVuSans-32" transform="translate(506.005859 0)"/>
       <use xlink:href="#DejaVuSans-38" transform="translate(569.628906 0)"/>
      </g>
     </g>
    </g>
    <g id="xtick_5">
     <g id="line2d_5">
      <g>
       <use xlink:href="#mc34d55341a" x="593.278485" y="260.12" style="stroke: #000000; stroke-width: 0.8"/>
      </g>
     </g>
     <g id="text_5">
      <!-- conns = 512 -->
      <g transform="translate(561.615985 274.718437) scale(0.1 -0.1)">
       <defs>
        <path id="DejaVuSans-35" d="M 691 4666 
L 3169 4666 
L 3169 4134 
L 1269 4134 
L 1269 2991 
Q 1406 3038 1543 3061 
Q 1681 3084 1819 3084 
Q 2600 3084 3056 2656 
Q 3513 2228 3513 1497 
Q 3513 744 3044 326 
Q 2575 -91 1722 -91 
Q 1428 -91 1123 -41 
Q 819 9 494 109 
L 494 744 
Q 775 591 1075 516 
Q 1375 441 1709 441 
Q 2250 441 2565 725 
Q 2881 1009 2881 1497 
Q 2881 1984 2565 2268 
Q 2250 2553 1709 2553 
Q 1456 2553 1204 2497 
Q 953 2441 691 2322 
L 691 4666 
z
" transform="scale(0.015625)"/>
       </defs>
       <use xlink:href="#DejaVuSans-63"/>
       <use xlink:href="#DejaVuSans-6f" transform="translate(54.980469 0)"/>
       <use xlink:href="#DejaVuSans-6e" transform="translate(116.162109 0)"/>
       <use xlink:href="#DejaVuSans-6e" transform="translate(179.541016 0)"/>
       <use xlink:href="#DejaVuSans-73" transform="translate(242.919922 0)"/>
       <use xlink:href="#DejaVuSans-20" transform="translate(295.019531 0)"/>
       <use xlink:href="#DejaVuSans-3d" transform="translate(326.806641 0)"/>
       <use xlink:href="#DejaVuSans-20" transform="translate(410.595703 0)"/>
       <use xlink:href="#DejaVuSans-35" transform="translate(442.382812 0)"/>
       <use xlink:href="#DejaVuSans-31" transform="translate(506.005859 0)"/>
       <use xlink:href="#DejaVuSans-32" transform="translate(569.628906 0)"/>
      </g>
     </g>
    </g>
   </g>
   <g id="matplotlib.axis_2">
    <g id="ytick_1">
     <g id="line2d_6">
      <path d="M 44.66 260.12 
L 668.95 260.12 
" clip-path="url(#pa8cdb94fa6)" style="fill: none; stroke-dasharray: 2.96,1.28; stroke-dashoffset: 0; stroke: #b0b0b0; stroke-opacity: 0.3; stroke-width: 0.8"/>
     </g>
     <g id="line2d_7">
      <defs>
       <path id="mf83e6e6fca" d="M 0 0 
L -3.5 0 
" style="stroke: #000000; stroke-width: 0.8"/>
      </defs>
      <g>
       <use xlink:href="#mf83e6e6fca" x="44.66" y="260.12" style="stroke: #000000; stroke-width: 0.8"/>
      </g>
     </g>
     <g id="text_6">
      <!-- 0 -->
      <g transform="translate(31.2975 263.919219) scale(0.1 -0.1)">
       <defs>
        <path id="DejaVuSans-30" d="M 2034 4250 
Q 1547 4250 1301 3770 
Q 1056 3291 1056 2328 
Q 1056 1369 1301 889 
Q 1547 409 2034 409 
Q 2525 409 2770 889 
Q 3016 1369 3016 2328 
Q 3016 3291 2770 3770 
Q 2525 4250 2034 4250 
z
M 2034 4750 
Q 2819 4750 3233 4129 
Q 3647 3509 3647 2328 
Q 3647 1150 3233 529 
Q 2819 -91 2034 -91 
Q 1250 -91 836 529 
Q 422 1150 422 2328 
Q 422 3509 836 4129 
Q 1250 4750 2034 4750 
z
" transform="scale(0.015625)"/>
       </defs>
       <use xlink:href="#DejaVuSans-30"/>
      </g>
     </g>
    </g>
    <g id="ytick_2">
     <g id="line2d_8">
      <path d="M 44.66 231.242891 
L 668.95 231.242891 
" clip-path="url(#pa8cdb94fa6)" style="fill: none; stroke-dasharray: 2.96,1.28; stroke-dashoffset: 0; stroke: #b0b0b0; stroke-opacity: 0.3; stroke-width: 0.8"/>
     </g>
     <g id="line2d_9">
      <g>
       <use xlink:href="#mf83e6e6fca" x="44.66" y="231.242891" style="stroke: #000000; stroke-width: 0.8"/>
      </g>
     </g>
     <g id="text_7">
      <!-- 2 -->
      <g transform="translate(31.2975 235.04211) scale(0.1 -0.1)">
       <use xlink:href="#DejaVuSans-32"/>
      </g>
     </g>
    </g>
    <g id="ytick_3">
     <g id="line2d_10">
      <path d="M 44.66 202.365782 
L 668.95 202.365782 
" clip-path="url(#pa8cdb94fa6)" style="fill: none; stroke-dasharray: 2.96,1.28; stroke-dashoffset: 0; stroke: #b0b0b0; stroke-opacity: 0.3; stroke-width: 0.8"/>
     </g>
     <g id="line2d_11">
      <g>
       <use xlink:href="#mf83e6e6fca" x="44.66" y="202.365782" style="stroke: #000000; stroke-width: 0.8"/>
      </g>
     </g>
     <g id="text_8">
      <!-- 4 -->
      <g transform="translate(31.2975 206.165001) scale(0.1 -0.1)">
       <defs>
        <path id="DejaVuSans-34" d="M 2419 4116 
L 825 1625 
L 2419 1625 
L 2419 4116 
z
M 2253 4666 
L 3047 4666 
L 3047 1625 
L 3713 1625 
L 3713 1100 
L 3047 1100 
L 3047 0 
L 2419 0 
L 2419 1100 
L 313 1100 
L 313 1709 
L 2253 4666 
z
" transform="scale(0.015625)"/>
       </defs>
       <use xlink:href="#DejaVuSans-34"/>
      </g>
     </g>
    </g>
    <g id="ytick_4">
     <g id="line2d_12">
      <path d="M 44.66 173.488673 
L 668.95 173.488673 
" clip-path="url(#pa8cdb94fa6)" style="fill: none; stroke-dasharray: 2.96,1.28; stroke-dashoffset: 0; stroke: #b0b0b0; stroke-opacity: 0.3; stroke-width: 0.8"/>
     </g>
     <g id="line2d_13">
      <g>
       <use xlink:href="#mf83e6e6fca" x="44.66" y="173.488673" style="stroke: #000000; stroke-width: 0.8"/>
      </g>
     </g>
     <g id="text_9">
      <!-- 6 -->
      <g transform="translate(31.2975 177.287892) scale(0.1 -0.1)">
       <defs>
        <path id="DejaVuSans-36" d="M 2113 2584 
Q 1688 2584 1439 2293 
Q 1191 2003 1191 1497 
Q 1191 994 1439 701 
Q 1688 409 2113 409 
Q 2538 409 2786 701 
Q 3034 994 3034 1497 
Q 3034 2003 2786 2293 
Q 2538 2584 2113 2584 
z
M 3366 4563 
L 3366 3988 
Q 3128 4100 2886 4159 
Q 2644 4219 2406 4219 
Q 1781 4219 1451 3797 
Q 1122 3375 1075 2522 
Q 1259 2794 1537 2939 
Q 1816 3084 2150 3084 
Q 2853 3084 3261 2657 
Q 3669 2231 3669 1497 
Q 3669 778 3244 343 
Q 2819 -91 2113 -91 
Q 1303 -91 875 529 
Q 447 1150 447 2328 
Q 447 3434 972 4092 
Q 1497 4750 2381 4750 
Q 2619 4750 2861 4703 
Q 3103 4656 3366 4563 
z
" transform="scale(0.015625)"/>
       </defs>
       <use xlink:href="#DejaVuSans-36"/>
      </g>
     </g>
    </g>
    <g id="ytick_5">
     <g id="line2d_14">
      <path d="M 44.66 144.611564 
L 668.95 144.611564 
" clip-path="url(#pa8cdb94fa6)" style="fill: none; stroke-dasharray: 2.96,1.28; stroke-dashoffset: 0; stroke: #b0b0b0; stroke-opacity: 0.3; stroke-width: 0.8"/>
     </g>
     <g id="line2d_15">
      <g>
       <use xlink:href="#mf83e6e6fca" x="44.66" y="144.611564" style="stroke: #000000; stroke-width: 0.8"/>
      </g>
     </g>
     <g id="text_10">
      <!-- 8 -->
      <g transform="translate(31.2975 148.410783) scale(0.1 -0.1)">
       <use xlink:href="#DejaVuSans-38"/>
      </g>
     </g>
    </g>
    <g id="ytick_6">
     <g id="line2d_16">
      <path d="M 44.66 115.734455 
L 668.95 115.734455 
" clip-path="url(#pa8cdb94fa6)" style="fill: none; stroke-dasharray: 2.96,1.28; stroke-dashoffset: 0; stroke: #b0b0b0; stroke-opacity: 0.3; stroke-width: 0.8"/>
     </g>
     <g id="line2d_17">
      <g>
       <use xlink:href="#mf83e6e6fca" x="44.66" y="115.734455" style="stroke: #000000; stroke-width: 0.8"/>
      </g>
     </g>
     <g id="text_11">
      <!-- 10 -->
      <g transform="translate(24.935 119.533674) scale(0.1 -0.1)">
       <use xlink:href="#DejaVuSans-31"/>
       <use xlink:href="#DejaVuSans-30" transform="translate(63.623047 0)"/>
      </g>
     </g>
    </g>
    <g id="ytick_7">
     <g id="line2d_18">
      <path d="M 44.66 86.857346 
L 668.95 86.857346 
" clip-path="url(#pa8cdb94fa6)" style="fill: none; stroke-dasharray: 2.96,1.28; stroke-dashoffset: 0; stroke: #b0b0b0; stroke-opacity: 0.3; stroke-width: 0.8"/>
     </g>
     <g id="line2d_19">
      <g>
       <use xlink:href="#mf83e6e6fca" x="44.66" y="86.857346" style="stroke: #000000; stroke-width: 0.8"/>
      </g>
     </g>
     <g id="text_12">
      <!-- 12 -->
      <g transform="translate(24.935 90.656565) scale(0.1 -0.1)">
       <use xlink:href="#DejaVuSans-31"/>
       <use xlink:href="#DejaVuSans-32" transform="translate(63.623047 0)"/>
      </g>
     </g>
    </g>
    <g id="text_13">
     <!-- Messages per Second (M/s) -->
     <g transform="translate(18.855312 232.2776) rotate(-90) scale(0.1 -0.1)">
      <defs>
       <path id="DejaVuSans-4d" d="M 628 4666 
L 1569 4666 
L 2759 1491 
L 3956 4666 
L 4897 4666 
L 4897 0 
L 4281 0 
L 4281 4097 
L 3078 897 
L 2444 897 
L 1241 4097 
L 1241 0 
L 628 0 
L 628 4666 
z
" transform="scale(0.015625)"/>
       <path id="DejaVuSans-65" d="M 3597 1894 
L 3597 1613 
L 953 1613 
Q 991 1019 1311 708 
Q 1631 397 2203 397 
Q 2534 397 2845 478 
Q 3156 559 3463 722 
L 3463 178 
Q 3153 47 2828 -22 
Q 2503 -91 2169 -91 
Q 1331 -91 842 396 
Q 353 884 353 1716 
Q 353 2575 817 3079 
Q 1281 3584 2069 3584 
Q 2775 3584 3186 3129 
Q 3597 2675 3597 1894 
z
M 3022 2063 
Q 3016 2534 2758 2815 
Q 2500 3097 2075 3097 
Q 1594 3097 1305 2825 
Q 1016 2553 972 2059 
L 3022 2063 
z
" transform="scale(0.015625)"/>
       <path id="DejaVuSans-61" d="M 2194 1759 
Q 1497 1759 1228 1600 
Q 959 1441 959 1056 
Q 959 750 1161 570 
Q 1363 391 1709 391 
Q 2188 391 2477 730 
Q 2766 1069 2766 1631 
L 2766 1759 
L 2194 1759 
z
M 3341 1997 
L 3341 0 
L 2766 0 
L 2766 531 
Q 2569 213 2275 61 
Q 1981 -91 1556 -91 
Q 1019 -91 701 211 
Q 384 513 384 1019 
Q 384 1609 779 1909 
Q 1175 2209 1959 2209 
L 2766 2209 
L 2766 2266 
Q 2766 2663 2505 2880 
Q 2244 3097 1772 3097 
Q 1472 3097 1187 3025 
Q 903 2953 641 2809 
L 641 3341 
Q 956 3463 1253 3523 
Q 1550 3584 1831 3584 
Q 2591 3584 2966 3190 
Q 3341 2797 3341 1997 
z
" transform="scale(0.015625)"/>
       <path id="DejaVuSans-67" d="M 2906 1791 
Q 2906 2416 2648 2759 
Q 2391 3103 1925 3103 
Q 1463 3103 1205 2759 
Q 947 2416 947 1791 
Q 947 1169 1205 825 
Q 1463 481 1925 481 
Q 2391 481 2648 825 
Q 2906 1169 2906 1791 
z
M 3481 434 
Q 3481 -459 3084 -895 
Q 2688 -1331 1869 -1331 
Q 1566 -1331 1297 -1286 
Q 1028 -1241 775 -1147 
L 775 -588 
Q 1028 -725 1275 -790 
Q 1522 -856 1778 -856 
Q 2344 -856 2625 -561 
Q 2906 -266 2906 331 
L 2906 616 
Q 2728 306 2450 153 
Q 2172 0 1784 0 
Q 1141 0 747 490 
Q 353 981 353 1791 
Q 353 2603 747 3093 
Q 1141 3584 1784 3584 
Q 2172 3584 2450 3431 
Q 2728 3278 2906 2969 
L 2906 3500 
L 3481 3500 
L 3481 434 
z
" transform="scale(0.015625)"/>
       <path id="DejaVuSans-70" d="M 1159 525 
L 1159 -1331 
L 581 -1331 
L 581 3500 
L 1159 3500 
L 1159 2969 
Q 1341 3281 1617 3432 
Q 1894 3584 2278 3584 
Q 2916 3584 3314 3078 
Q 3713 2572 3713 1747 
Q 3713 922 3314 415 
Q 2916 -91 2278 -91 
Q 1894 -91 1617 61 
Q 1341 213 1159 525 
z
M 3116 1747 
Q 3116 2381 2855 2742 
Q 2594 3103 2138 3103 
Q 1681 3103 1420 2742 
Q 1159 2381 1159 1747 
Q 1159 1113 1420 752 
Q 1681 391 2138 391 
Q 2594 391 2855 752 
Q 3116 1113 3116 1747 
z
" transform="scale(0.015625)"/>
       <path id="DejaVuSans-72" d="M 2631 2963 
Q 2534 3019 2420 3045 
Q 2306 3072 2169 3072 
Q 1681 3072 1420 2755 
Q 1159 2438 1159 1844 
L 1159 0 
L 581 0 
L 581 3500 
L 1159 3500 
L 1159 2956 
Q 1341 3275 1631 3429 
Q 1922 3584 2338 3584 
Q 2397 3584 2469 3576 
Q 2541 3569 2628 3553 
L 2631 2963 
z
" transform="scale(0.015625)"/>
       <path id="DejaVuSans-53" d="M 3425 4513 
L 3425 3897 
Q 3066 4069 2747 4153 
Q 2428 4238 2131 4238 
Q 1616 4238 1336 4038 
Q 1056 3838 1056 3469 
Q 1056 3159 1242 3001 
Q 1428 2844 1947 2747 
L 2328 2669 
Q 3034 2534 3370 2195 
Q 3706 1856 3706 1288 
Q 3706 609 3251 259 
Q 2797 -91 1919 -91 
Q 1588 -91 1214 -16 
Q 841 59 441 206 
L 441 856 
Q 825 641 1194 531 
Q 1563 422 1919 422 
Q 2459 422 2753 634 
Q 3047 847 3047 1241 
Q 3047 1584 2836 1778 
Q 2625 1972 2144 2069 
L 1759 2144 
Q 1053 2284 737 2584 
Q 422 2884 422 3419 
Q 422 4038 858 4394 
Q 1294 4750 2059 4750 
Q 2388 4750 2728 4690 
Q 3069 4631 3425 4513 
z
" transform="scale(0.015625)"/>
       <path id="DejaVuSans-64" d="M 2906 2969 
L 2906 4863 
L 3481 4863 
L 3481 0 
L 2906 0 
L 2906 525 
Q 2725 213 2448 61 
Q 2172 -91 1784 -91 
Q 1150 -91 751 415 
Q 353 922 353 1747 
Q 353 2572 751 3078 
Q 1150 3584 1784 3584 
Q 2172 3584 2448 3432 
Q 2725 3281 2906 2969 
z
M 947 1747 
Q 947 1113 1208 752 
Q 1469 391 1925 391 
Q 2381 391 2643 752 
Q 2906 1113 2906 1747 
Q 2906 2381 2643 2742 
Q 2381 3103 1925 3103 
Q 1469 3103 1208 2742 
Q 947 2381 947 1747 
z
" transform="scale(0.015625)"/>
       <path id="DejaVuSans-28" d="M 1984 4856 
Q 1566 4138 1362 3434 
Q 1159 2731 1159 2009 
Q 1159 1288 1364 580 
Q 1569 -128 1984 -844 
L 1484 -844 
Q 1016 -109 783 600 
Q 550 1309 550 2009 
Q 550 2706 781 3412 
Q 1013 4119 1484 4856 
L 1984 4856 
z
" transform="scale(0.015625)"/>
       <path id="DejaVuSans-2f" d="M 1625 4666 
L 2156 4666 
L 531 -594 
L 0 -594 
L 1625 4666 
z
" transform="scale(0.015625)"/>
       <path id="DejaVuSans-29" d="M 513 4856 
L 1013 4856 
Q 1481 4119 1714 3412 
Q 1947 2706 1947 2009 
Q 1947 1309 1714 600 
Q 1481 -109 1013 -844 
L 513 -844 
Q 928 -128 1133 580 
Q 1338 1288 1338 2009 
Q 1338 2731 1133 3434 
Q 928 4138 513 4856 
z
" transform="scale(0.015625)"/>
      </defs>
      <use xlink:href="#DejaVuSans-4d"/>
      <use xlink:href="#DejaVuSans-65" transform="translate(86.279297 0)"/>
      <use xlink:href="#DejaVuSans-73" transform="translate(147.802734 0)"/>
      <use xlink:href="#DejaVuSans-73" transform="translate(199.902344 0)"/>
      <use xlink:href="#DejaVuSans-61" transform="translate(252.001953 0)"/>
      <use xlink:href="#DejaVuSans-67" transform="translate(313.28125 0)"/>
      <use xlink:href="#DejaVuSans-65" transform="translate(376.757812 0)"/>
      <use xlink:href="#DejaVuSans-73" transform="translate(438.28125 0)"/>
      <use xlink:href="#DejaVuSans-20" transform="translate(490.380859 0)"/>
      <use xlink:href="#DejaVuSans-70" transform="translate(522.167969 0)"/>
      <use xlink:href="#DejaVuSans-65" transform="translate(585.644531 0)"/>
      <use xlink:href="#DejaVuSans-72" transform="translate(647.167969 0)"/>
      <use xlink:href="#DejaVuSans-20" transform="translate(688.28125 0)"/>
      <use xlink:href="#DejaVuSans-53" transform="translate(720.068359 0)"/>
      <use xlink:href="#DejaVuSans-65" transform="translate(783.544922 0)"/>
      <use xlink:href="#DejaVuSans-63" transform="translate(845.068359 0)"/>
      <use xlink:href="#DejaVuSans-6f" transform="translate(900.048828 0)"/>
      <use xlink:href="#DejaVuSans-6e" transform="translate(961.230469 0)"/>
      <use xlink:href="#DejaVuSans-64" transform="translate(1024.609375 0)"/>
      <use xlink:href="#DejaVuSans-20" transform="translate(1088.085938 0)"/>
      <use xlink:href="#DejaVuSans-28" transform="translate(1119.873047 0)"/>
      <use xlink:href="#DejaVuSans-4d" transform="translate(1158.886719 0)"/>
      <use xlink:href="#DejaVuSans-2f" transform="translate(1245.166016 0)"/>
      <use xlink:href="#DejaVuSans-73" transform="translate(1278.857422 0)"/>
      <use xlink:href="#DejaVuSans-29" transform="translate(1330.957031 0)"/>
     </g>
    </g>
   </g>
   <g id="patch_23">
    <path d="M 44.66 260.12 
L 44.66 67.4352 
" style="fill: none; stroke: #000000; stroke-width: 0.8; stroke-linejoin: miter; stroke-linecap: square"/>
   </g>
   <g id="patch_24">
    <path d="M 668.95 260.12 
L 668.95 67.4352 
" style="fill: none; stroke: #000000; stroke-width: 0.8; stroke-linejoin: miter; stroke-linecap: square"/>
   </g>
   <g id="patch_25">
    <path d="M 44.66 260.12 
L 668.95 260.12 
" style="fill: none; stroke: #000000; stroke-width: 0.8; stroke-linejoin: miter; stroke-linecap: square"/>
   </g>
   <g id="patch_26">
    <path d="M 44.66 67.4352 
L 668.95 67.4352 
" style="fill: none; stroke: #000000; stroke-width: 0.8; stroke-linejoin: miter; stroke-linecap: square"/>
   </g>
   <g id="text_14">
    <!-- 100% -->
    <g transform="translate(73.424867 136.622785) scale(0.08 -0.08)">
     <defs>
      <path id="DejaVuSans-25" d="M 4653 2053 
Q 4381 2053 4226 1822 
Q 4072 1591 4072 1178 
Q 4072 772 4226 539 
Q 4381 306 4653 306 
Q 4919 306 5073 539 
Q 5228 772 5228 1178 
Q 5228 1588 5073 1820 
Q 4919 2053 4653 2053 
z
M 4653 2450 
Q 5147 2450 5437 2106 
Q 5728 1763 5728 1178 
Q 5728 594 5436 251 
Q 5144 -91 4653 -91 
Q 4153 -91 3862 251 
Q 3572 594 3572 1178 
Q 3572 1766 3864 2108 
Q 4156 2450 4653 2450 
z
M 1428 4353 
Q 1159 4353 1004 4120 
Q 850 3888 850 3481 
Q 850 3069 1003 2837 
Q 1156 2606 1428 2606 
Q 1700 2606 1854 2837 
Q 2009 3069 2009 3481 
Q 2009 3884 1853 4118 
Q 1697 4353 1428 4353 
z
M 4250 4750 
L 4750 4750 
L 1831 -91 
L 1331 -91 
L 4250 4750 
z
M 1428 4750 
Q 1922 4750 2215 4408 
Q 2509 4066 2509 3481 
Q 2509 2891 2217 2550 
Q 1925 2209 1428 2209 
Q 931 2209 642 2551 
Q 353 2894 353 3481 
Q 353 4063 643 4406 
Q 934 4750 1428 4750 
z
" transform="scale(0.015625)"/>
     </defs>
     <use xlink:href="#DejaVuSans-31"/>
     <use xlink:href="#DejaVuSans-30" transform="translate(63.623047 0)"/>
     <use xlink:href="#DejaVuSans-30" transform="translate(127.246094 0)"/>
     <use xlink:href="#DejaVuSans-25" transform="translate(190.869141 0)"/>
    </g>
   </g>
   <g id="text_15">
    <!-- 100% -->
    <g transform="translate(191.66161 137.183294) scale(0.08 -0.08)">
     <use xlink:href="#DejaVuSans-31"/>
     <use xlink:href="#DejaVuSans-30" transform="translate(63.623047 0)"/>
     <use xlink:href="#DejaVuSans-30" transform="translate(127.246094 0)"/>
     <use xlink:href="#DejaVuSans-25" transform="translate(190.869141 0)"/>
    </g>
   </g>
   <g id="text_16">
    <!-- 100% -->
    <g transform="translate(309.898352 137.513543) scale(0.08 -0.08)">
     <use xlink:href="#DejaVuSans-31"/>
     <use xlink:href="#DejaVuSans-30" transform="translate(63.623047 0)"/>
     <use xlink:href="#DejaVuSans-30" transform="translate(127.246094 0)"/>
     <use xlink:href="#DejaVuSans-25" transform="translate(190.869141 0)"/>
    </g>
   </g>
   <g id="text_17">
    <!-- 100% -->
    <g transform="translate(428.135095 137.581331) scale(0.08 -0.08)">
     <use xlink:href="#DejaVuSans-31"/>
     <use xlink:href="#DejaVuSans-30" transform="translate(63.623047 0)"/>
     <use xlink:href="#DejaVuSans-30" transform="translate(127.246094 0)"/>
     <use xlink:href="#DejaVuSans-25" transform="translate(190.869141 0)"/>
    </g>
   </g>
   <g id="text_18">
    <!-- 100% -->
    <g transform="translate(546.371837 136.974282) scale(0.08 -0.08)">
     <use xlink:href="#DejaVuSans-31"/>
     <use xlink:href="#DejaVuSans-30" transform="translate(63.623047 0)"/>
     <use xlink:href="#DejaVuSans-30" transform="translate(127.246094 0)"/>
     <use xlink:href="#DejaVuSans-25" transform="translate(190.869141 0)"/>
    </g>
   </g>
   <g id="text_19">
    <!-- 151% -->
    <g transform="translate(97.072216 74.946917) scale(0.08 -0.08)">
     <use xlink:href="#DejaVuSans-31"/>
     <use xlink:href="#DejaVuSans-35" transform="translate(63.623047 0)"/>
     <use xlink:href="#DejaVuSans-31" transform="translate(127.246094 0)"/>
     <use xlink:href="#DejaVuSans-25" transform="translate(190.869141 0)"/>
    </g>
   </g>
   <g id="text_20">
    <!-- 151% -->
    <g transform="translate(215.308958 75.047549) scale(0.08 -0.08)">
     <use xlink:href="#DejaVuSans-31"/>
     <use xlink:href="#DejaVuSans-35" transform="translate(63.623047 0)"/>
     <use xlink:href="#DejaVuSans-31" transform="translate(127.246094 0)"/>
     <use xlink:href="#DejaVuSans-25" transform="translate(190.869141 0)"/>
    </g>
   </g>
   <g id="text_21">
    <!-- 146% -->
    <g transform="translate(333.545701 81.353899) scale(0.08 -0.08)">
     <use xlink:href="#DejaVuSans-31"/>
     <use xlink:href="#DejaVuSans-34" transform="translate(63.623047 0)"/>
     <use xlink:href="#DejaVuSans-36" transform="translate(127.246094 0)"/>
     <use xlink:href="#DejaVuSans-25" transform="translate(190.869141 0)"/>
    </g>
   </g>
   <g id="text_22">
    <!-- 147% -->
    <g transform="translate(451.782443 80.562769) scale(0.08 -0.08)">
     <defs>
      <path id="DejaVuSans-37" d="M 525 4666 
L 3525 4666 
L 3525 4397 
L 1831 0 
L 1172 0 
L 2766 4134 
L 525 4134 
L 525 4666 
z
" transform="scale(0.015625)"/>
     </defs>
     <use xlink:href="#DejaVuSans-31"/>
     <use xlink:href="#DejaVuSans-34" transform="translate(63.623047 0)"/>
     <use xlink:href="#DejaVuSans-37" transform="translate(127.246094 0)"/>
     <use xlink:href="#DejaVuSans-25" transform="translate(190.869141 0)"/>
    </g>
   </g>
   <g id="text_23">
    <!-- 142% -->
    <g transform="translate(570.019186 85.869314) scale(0.08 -0.08)">
     <use xlink:href="#DejaVuSans-31"/>
     <use xlink:href="#DejaVuSans-34" transform="translate(63.623047 0)"/>
     <use xlink:href="#DejaVuSans-32" transform="translate(127.246094 0)"/>
     <use xlink:href="#DejaVuSans-25" transform="translate(190.869141 0)"/>
    </g>
   </g>
   <g id="text_24">
    <!-- 63% -->
    <g transform="translate(123.264564 181.590874) scale(0.08 -0.08)">
     <use xlink:href="#DejaVuSans-36"/>
     <use xlink:href="#DejaVuSans-33" transform="translate(63.623047 0)"/>
     <use xlink:href="#DejaVuSans-25" transform="translate(127.246094 0)"/>
    </g>
   </g>
   <g id="text_25">
    <!-- 78% -->
    <g transform="translate(241.501307 164.41848) scale(0.08 -0.08)">
     <use xlink:href="#DejaVuSans-37"/>
     <use xlink:href="#DejaVuSans-38" transform="translate(63.623047 0)"/>
     <use xlink:href="#DejaVuSans-25" transform="translate(127.246094 0)"/>
    </g>
   </g>
   <g id="text_26">
    <!-- 74% -->
    <g transform="translate(359.738049 168.424054) scale(0.08 -0.08)">
     <use xlink:href="#DejaVuSans-37"/>
     <use xlink:href="#DejaVuSans-34" transform="translate(63.623047 0)"/>
     <use xlink:href="#DejaVuSans-25" transform="translate(127.246094 0)"/>
    </g>
   </g>
   <g id="text_27">
    <!-- 59% -->
    <g transform="translate(477.974792 187.608329) scale(0.08 -0.08)">
     <defs>
      <path id="DejaVuSans-39" d="M 703 97 
L 703 672 
Q 941 559 1184 500 
Q 1428 441 1663 441 
Q 2288 441 2617 861 
Q 2947 1281 2994 2138 
Q 2813 1869 2534 1725 
Q 2256 1581 1919 1581 
Q 1219 1581 811 2004 
Q 403 2428 403 3163 
Q 403 3881 828 4315 
Q 1253 4750 1959 4750 
Q 2769 4750 3195 4129 
Q 3622 3509 3622 2328 
Q 3622 1225 3098 567 
Q 2575 -91 1691 -91 
Q 1453 -91 1209 -44 
Q 966 3 703 97 
z
M 1959 2075 
Q 2384 2075 2632 2365 
Q 2881 2656 2881 3163 
Q 2881 3666 2632 3958 
Q 2384 4250 1959 4250 
Q 1534 4250 1286 3958 
Q 1038 3666 1038 3163 
Q 1038 2656 1286 2365 
Q 1534 2075 1959 2075 
z
" transform="scale(0.015625)"/>
     </defs>
     <use xlink:href="#DejaVuSans-35"/>
     <use xlink:href="#DejaVuSans-39" transform="translate(63.623047 0)"/>
     <use xlink:href="#DejaVuSans-25" transform="translate(127.246094 0)"/>
    </g>
   </g>
   <g id="text_28">
    <!-- 48% -->
    <g transform="translate(596.211534 200.09224) scale(0.08 -0.08)">
     <use xlink:href="#DejaVuSans-34"/>
     <use xlink:href="#DejaVuSans-38" transform="translate(63.623047 0)"/>
     <use xlink:href="#DejaVuSans-25" transform="translate(127.246094 0)"/>
    </g>
   </g>
   <g id="text_29">
    <!-- 39% -->
    <g transform="translate(146.911913 210.458477) scale(0.08 -0.08)">
     <use xlink:href="#DejaVuSans-33"/>
     <use xlink:href="#DejaVuSans-39" transform="translate(63.623047 0)"/>
     <use xlink:href="#DejaVuSans-25" transform="translate(127.246094 0)"/>
    </g>
   </g>
   <g id="text_30">
    <!-- 60% -->
    <g transform="translate(265.148655 185.619783) scale(0.08 -0.08)">
     <use xlink:href="#DejaVuSans-36"/>
     <use xlink:href="#DejaVuSans-30" transform="translate(63.623047 0)"/>
     <use xlink:href="#DejaVuSans-25" transform="translate(127.246094 0)"/>
    </g>
   </g>
   <g id="text_31">
    <!-- 58% -->
    <g transform="translate(383.385398 188.109365) scale(0.08 -0.08)">
     <use xlink:href="#DejaVuSans-35"/>
     <use xlink:href="#DejaVuSans-38" transform="translate(63.623047 0)"/>
     <use xlink:href="#DejaVuSans-25" transform="translate(127.246094 0)"/>
    </g>
   </g>
   <g id="text_32">
    <!-- 51% -->
    <g transform="translate(501.62214 197.12565) scale(0.08 -0.08)">
     <use xlink:href="#DejaVuSans-35"/>
     <use xlink:href="#DejaVuSans-31" transform="translate(63.623047 0)"/>
     <use xlink:href="#DejaVuSans-25" transform="translate(127.246094 0)"/>
    </g>
   </g>
   <g id="text_33">
    <!-- 41% -->
    <g transform="translate(619.858883 208.863506) scale(0.08 -0.08)">
     <use xlink:href="#DejaVuSans-34"/>
     <use xlink:href="#DejaVuSans-31" transform="translate(63.623047 0)"/>
     <use xlink:href="#DejaVuSans-25" transform="translate(127.246094 0)"/>
    </g>
   </g>
   <g id="text_34">
    <!-- AMD Ryzen 9 9950X 16-Core Processor | NixOS 6.12.55 -->
    <g style="fill: #555555" transform="translate(392.06875 61.223692) scale(0.1 -0.1)">
     <defs>
      <path id="DejaVuSans-41" d="M 2188 4044 
L 1331 1722 
L 3047 1722 
L 2188 4044 
z
M 1831 4666 
L 2547 4666 
L 4325 0 
L 3669 0 
L 3244 1197 
L 1141 1197 
L 716 0 
L 50 0 
L 1831 4666 
z
" transform="scale(0.015625)"/>
      <path id="DejaVuSans-44" d="M 1259 4147 
L 1259 519 
L 2022 519 
Q 2988 519 3436 956 
Q 3884 1394 3884 2338 
Q 3884 3275 3436 3711 
Q 2988 4147 2022 4147 
L 1259 4147 
z
M 628 4666 
L 1925 4666 
Q 3281 4666 3915 4102 
Q 4550 3538 4550 2338 
Q 4550 1131 3912 565 
Q 3275 0 1925 0 
L 628 0 
L 628 4666 
z
" transform="scale(0.015625)"/>
      <path id="DejaVuSans-52" d="M 2841 2188 
Q 3044 2119 3236 1894 
Q 3428 1669 3622 1275 
L 4263 0 
L 3584 0 
L 2988 1197 
Q 2756 1666 2539 1819 
Q 2322 1972 1947 1972 
L 1259 1972 
L 1259 0 
L 628 0 
L 628 4666 
L 2053 4666 
Q 2853 4666 3247 4331 
Q 3641 3997 3641 3322 
Q 3641 2881 3436 2590 
Q 3231 2300 2841 2188 
z
M 1259 4147 
L 1259 2491 
L 2053 2491 
Q 2509 2491 2742 2702 
Q 2975 2913 2975 3322 
Q 2975 3731 2742 3939 
Q 2509 4147 2053 4147 
L 1259 4147 
z
" transform="scale(0.015625)"/>
      <path id="DejaVuSans-79" d="M 2059 -325 
Q 1816 -950 1584 -1140 
Q 1353 -1331 966 -1331 
L 506 -1331 
L 506 -850 
L 844 -850 
Q 1081 -850 1212 -737 
Q 1344 -625 1503 -206 
L 1606 56 
L 191 3500 
L 800 3500 
L 1894 763 
L 2988 3500 
L 3597 3500 
L 2059 -325 
z
" transform="scale(0.015625)"/>
      <path id="DejaVuSans-7a" d="M 353 3500 
L 3084 3500 
L 3084 2975 
L 922 459 
L 3084 459 
L 3084 0 
L 275 0 
L 275 525 
L 2438 3041 
L 353 3041 
L 353 3500 
z
" transform="scale(0.015625)"/>
      <path id="DejaVuSans-58" d="M 403 4666 
L 1081 4666 
L 2241 2931 
L 3406 4666 
L 4084 4666 
L 2584 2425 
L 4184 0 
L 3506 0 
L 2194 1984 
L 872 0 
L 191 0 
L 1856 2491 
L 403 4666 
z
" transform="scale(0.015625)"/>
      <path id="DejaVuSans-2d" d="M 313 2009 
L 1997 2009 
L 1997 1497 
L 313 1497 
L 313 2009 
z
" transform="scale(0.015625)"/>
      <path id="DejaVuSans-43" d="M 4122 4306 
L 4122 3641 
Q 3803 3938 3442 4084 
Q 3081 4231 2675 4231 
Q 1875 4231 1450 3742 
Q 1025 3253 1025 2328 
Q 1025 1406 1450 917 
Q 1875 428 2675 428 
Q 3081 428 3442 575 
Q 3803 722 4122 1019 
L 4122 359 
Q 3791 134 3420 21 
Q 3050 -91 2638 -91 
Q 1578 -91 968 557 
Q 359 1206 359 2328 
Q 359 3453 968 4101 
Q 1578 4750 2638 4750 
Q 3056 4750 3426 4639 
Q 3797 4528 4122 4306 
z
" transform="scale(0.015625)"/>
      <path id="DejaVuSans-50" d="M 1259 4147 
L 1259 2394 
L 2053 2394 
Q 2494 2394 2734 2622 
Q 2975 2850 2975 3272 
Q 2975 3691 2734 3919 
Q 2494 4147 2053 4147 
L 1259 4147 
z
M 628 4666 
L 2053 4666 
Q 2838 4666 3239 4311 
Q 3641 3956 3641 3272 
Q 3641 2581 3239 2228 
Q 2838 1875 2053 1875 
L 1259 1875 
L 1259 0 
L 628 0 
L 628 4666 
z
" transform="scale(0.015625)"/>
      <path id="DejaVuSans-7c" d="M 1344 4891 
L 1344 -1509 
L 813 -1509 
L 813 4891 
L 1344 4891 
z
" transform="scale(0.015625)"/>
      <path id="DejaVuSans-4e" d="M 628 4666 
L 1478 4666 
L 3547 763 
L 3547 4666 
L 4159 4666 
L 4159 0 
L 3309 0 
L 1241 3903 
L 1241 0 
L 628 0 
L 628 4666 
z
" transform="scale(0.015625)"/>
      <path id="DejaVuSans-69" d="M 603 3500 
L 1178 3500 
L 1178 0 
L 603 0 
L 603 3500 
z
M 603 4863 
L 1178 4863 
L 1178 4134 
L 603 4134 
L 603 4863 
z
" transform="scale(0.015625)"/>
      <path id="DejaVuSans-78" d="M 3513 3500 
L 2247 1797 
L 3578 0 
L 2900 0 
L 1881 1375 
L 863 0 
L 184 0 
L 1544 1831 
L 300 3500 
L 978 3500 
L 1906 2253 
L 2834 3500 
L 3513 3500 
z
" transform="scale(0.015625)"/>
      <path id="DejaVuSans-4f" d="M 2522 4238 
Q 1834 4238 1429 3725 
Q 1025 3213 1025 2328 
Q 1025 1447 1429 934 
Q 1834 422 2522 422 
Q 3209 422 3611 934 
Q 4013 1447 4013 2328 
Q 4013 3213 3611 3725 
Q 3209 4238 2522 4238 
z
M 2522 4750 
Q 3503 4750 4090 4092 
Q 4678 3434 4678 2328 
Q 4678 1225 4090 567 
Q 3503 -91 2522 -91 
Q 1538 -91 948 565 
Q 359 1222 359 2328 
Q 359 3434 948 4092 
Q 1538 4750 2522 4750 
z
" transform="scale(0.015625)"/>
      <path id="DejaVuSans-2e" d="M 684 794 
L 1344 794 
L 1344 0 
L 684 0 
L 684 794 
z
" transform="scale(0.015625)"/>
     </defs>
     <use xlink:href="#DejaVuSans-41"/>
     <use xlink:href="#DejaVuSans-4d" transform="translate(68.408203 0)"/>
     <use xlink:href="#DejaVuSans-44" transform="translate(154.6875 0)"/>
     <use xlink:href="#DejaVuSans-20" transform="translate(231.689453 0)"/>
     <use xlink:href="#DejaVuSans-52" transform="translate(263.476562 0)"/>
     <use xlink:href="#DejaVuSans-79" transform="translate(327.458984 0)"/>
     <use xlink:href="#DejaVuSans-7a" transform="translate(386.638672 0)"/>
     <use xlink:href="#DejaVuSans-65" transform="translate(439.128906 0)"/>
     <use xlink:href="#DejaVuSans-6e" transform="translate(500.652344 0)"/>
     <use xlink:href="#DejaVuSans-20" transform="translate(564.03125 0)"/>
     <use xlink:href="#DejaVuSans-39" transform="translate(595.818359 0)"/>
     <use xlink:href="#DejaVuSans-20" transform="translate(659.441406 0)"/>
     <use xlink:href="#DejaVuSans-39" transform="translate(691.228516 0)"/>
     <use xlink:href="#DejaVuSans-39" transform="translate(754.851562 0)"/>
     <use xlink:href="#DejaVuSans-35" transform="translate(818.474609 0)"/>
     <use xlink:href="#DejaVuSans-30" transform="translate(882.097656 0)"/>
     <use xlink:href="#DejaVuSans-58" transform="translate(945.720703 0)"/>
     <use xlink:href="#DejaVuSans-20" transform="translate(1014.226562 0)"/>
     <use xlink:href="#DejaVuSans-31" transform="translate(1046.013672 0)"/>
     <use xlink:href="#DejaVuSans-36" transform="translate(1109.636719 0)"/>
     <use xlink:href="#DejaVuSans-2d" transform="translate(1173.259766 0)"/>
     <use xlink:href="#DejaVuSans-43" transform="translate(1209.34375 0)"/>
     <use xlink:href="#DejaVuSans-6f" transform="translate(1279.167969 0)"/>
     <use xlink:href="#DejaVuSans-72" transform="translate(1340.349609 0)"/>
     <use xlink:href="#DejaVuSans-65" transform="translate(1379.212891 0)"/>
     <use xlink:href="#DejaVuSans-20" transform="translate(1440.736328 0)"/>
     <use xlink:href="#DejaVuSans-50" transform="translate(1472.523438 0)"/>
     <use xlink:href="#DejaVuSans-72" transform="translate(1531.076172 0)"/>
     <use xlink:href="#DejaVuSans-6f" transform="translate(1569.939453 0)"/>
     <use xlink:href="#DejaVuSans-63" transform="translate(1631.121094 0)"/>
     <use xlink:href="#DejaVuSans-65" transform="translate(1686.101562 0)"/>
     <use xlink:href="#DejaVuSans-73" transform="translate(1747.625 0)"/>
     <use xlink:href="#DejaVuSans-73" transform="translate(1799.724609 0)"/>
     <use xlink:href="#DejaVuSans-6f" transform="translate(1851.824219 0)"/>
     <use xlink:href="#DejaVuSans-72" transform="translate(1913.005859 0)"/>
     <use xlink:href="#DejaVuSans-20" transform="translate(1954.119141 0)"/>
     <use xlink:href="#DejaVuSans-7c" transform="translate(1985.90625 0)"/>
     <use xlink:href="#DejaVuSans-20" transform="translate(2019.597656 0)"/>
     <use xlink:href="#DejaVuSans-4e" transform="translate(2051.384766 0)"/>
     <use xlink:href="#DejaVuSans-69" transform="translate(2126.189453 0)"/>
     <use xlink:href="#DejaVuSans-78" transform="translate(2153.972656 0)"/>
     <use xlink:href="#DejaVuSans-4f" transform="translate(2213.152344 0)"/>
     <use xlink:href="#DejaVuSans-53" transform="translate(2291.863281 0)"/>
     <use xlink:href="#DejaVuSans-20" transform="translate(2355.339844 0)"/>
     <use xlink:href="#DejaVuSans-36" transform="translate(2387.126953 0)"/>
     <use xlink:href="#DejaVuSans-2e" transform="translate(2450.75 0)"/>
     <use xlink:href="#DejaVuSans-31" transform="translate(2482.537109 0)"/>
     <use xlink:href="#DejaVuSans-32" transform="translate(2546.160156 0)"/>
     <use xlink:href="#DejaVuSans-2e" transform="translate(2609.783203 0)"/>
     <use xlink:href="#DejaVuSans-35" transform="translate(2641.570312 0)"/>
     <use xlink:href="#DejaVuSans-35" transform="translate(2705.193359 0)"/>
    </g>
   </g>
   <g id="legend_1">
    <g id="patch_27">
     <path d="M 578.803125 134.425825 
L 661.95 134.425825 
Q 663.95 134.425825 663.95 132.425825 
L 663.95 74.4352 
Q 663.95 72.4352 661.95 72.4352 
L 578.803125 72.4352 
Q 576.803125 72.4352 576.803125 74.4352 
L 576.803125 132.425825 
Q 576.803125 134.425825 578.803125 134.425825 
z
" style="fill: #ffffff; opacity: 0.6; stroke: #cccccc; stroke-linejoin: miter"/>
    </g>
    <g id="patch_28">
     <path d="M 580.803125 84.033637 
L 600.803125 84.033637 
L 600.803125 77.033637 
L 580.803125 77.033637 
z
" style="fill: #1f77b4; opacity: 0.6; stroke: #333333; stroke-linejoin: miter"/>
    </g>
    <g id="text_35">
     <!-- bsd -->
     <g transform="translate(608.803125 84.033637) scale(0.1 -0.1)">
      <defs>
       <path id="DejaVuSans-62" d="M 3116 1747 
Q 3116 2381 2855 2742 
Q 2594 3103 2138 3103 
Q 1681 3103 1420 2742 
Q 1159 2381 1159 1747 
Q 1159 1113 1420 752 
Q 1681 391 2138 391 
Q 2594 391 2855 752 
Q 3116 1113 3116 1747 
z
M 1159 2969 
Q 1341 3281 1617 3432 
Q 1894 3584 2278 3584 
Q 2916 3584 3314 3078 
Q 3713 2572 3713 1747 
Q 3713 922 3314 415 
Q 2916 -91 2278 -91 
Q 1894 -91 1617 61 
Q 1341 213 1159 525 
L 1159 0 
L 581 0 
L 581 4863 
L 1159 4863 
L 1159 2969 
z
" transform="scale(0.015625)"/>
      </defs>
      <use xlink:href="#DejaVuSans-62"/>
      <use xlink:href="#DejaVuSans-73" transform="translate(63.476562 0)"/>
      <use xlink:href="#DejaVuSans-64" transform="translate(115.576172 0)"/>
     </g>
    </g>
    <g id="patch_29">
     <path d="M 580.803125 98.711762 
L 600.803125 98.711762 
L 600.803125 91.711762 
L 580.803125 91.711762 
z
" style="fill: #ff7f0e; opacity: 0.6; stroke: #333333; stroke-linejoin: miter"/>
    </g>
    <g id="text_36">
     <!-- uring -->
     <g transform="translate(608.803125 98.711762) scale(0.1 -0.1)">
      <defs>
       <path id="DejaVuSans-75" d="M 544 1381 
L 544 3500 
L 1119 3500 
L 1119 1403 
Q 1119 906 1312 657 
Q 1506 409 1894 409 
Q 2359 409 2629 706 
Q 2900 1003 2900 1516 
L 2900 3500 
L 3475 3500 
L 3475 0 
L 2900 0 
L 2900 538 
Q 2691 219 2414 64 
Q 2138 -91 1772 -91 
Q 1169 -91 856 284 
Q 544 659 544 1381 
z
M 1991 3584 
L 1991 3584 
z
" transform="scale(0.015625)"/>
      </defs>
      <use xlink:href="#DejaVuSans-75"/>
      <use xlink:href="#DejaVuSans-72" transform="translate(63.378906 0)"/>
      <use xlink:href="#DejaVuSans-69" transform="translate(104.492188 0)"/>
      <use xlink:href="#DejaVuSans-6e" transform="translate(132.275391 0)"/>
      <use xlink:href="#DejaVuSans-67" transform="translate(195.654297 0)"/>
     </g>
    </g>
    <g id="patch_30">
     <path d="M 580.803125 113.389887 
L 600.803125 113.389887 
L 600.803125 106.389887 
L 580.803125 106.389887 
z
" style="fill: #2ca02c; opacity: 0.6; stroke: #333333; stroke-linejoin: miter"/>
    </g>
    <g id="text_37">
     <!-- asio -->
     <g transform="translate(608.803125 113.389887) scale(0.1 -0.1)">
      <use xlink:href="#DejaVuSans-61"/>
      <use xlink:href="#DejaVuSans-73" transform="translate(61.279297 0)"/>
      <use xlink:href="#DejaVuSans-69" transform="translate(113.378906 0)"/>
      <use xlink:href="#DejaVuSans-6f" transform="translate(141.162109 0)"/>
     </g>
    </g>
    <g id="patch_31">
     <path d="M 580.803125 128.068013 
L 600.803125 128.068013 
L 600.803125 121.068013 
L 580.803125 121.068013 
z
" style="fill: #d62728; opacity: 0.6; stroke: #333333; stroke-linejoin: miter"/>
    </g>
    <g id="text_38">
     <!-- asio_uring -->
     <g transform="translate(608.803125 128.068013) scale(0.1 -0.1)">
      <defs>
       <path id="DejaVuSans-5f" d="M 3263 -1063 
L 3263 -1509 
L -63 -1509 
L -63 -1063 
L 3263 -1063 
z
" transform="scale(0.015625)"/>
      </defs>
      <use xlink:href="#DejaVuSans-61"/>
      <use xlink:href="#DejaVuSans-73" transform="translate(61.279297 0)"/>
      <use xlink:href="#DejaVuSans-69" transform="translate(113.378906 0)"/>
      <use xlink:href="#DejaVuSans-6f" transform="translate(141.162109 0)"/>
      <use xlink:href="#DejaVuSans-5f" transform="translate(202.34375 0)"/>
      <use xlink:href="#DejaVuSans-75" transform="translate(252.34375 0)"/>
      <use xlink:href="#DejaVuSans-72" transform="translate(315.722656 0)"/>
      <use xlink:href="#DejaVuSans-69" transform="translate(356.835938 0)"/>
      <use xlink:href="#DejaVuSans-6e" transform="translate(384.619141 0)"/>
      <use xlink:href="#DejaVuSans-67" transform="translate(447.998047 0)"/>
     </g>
    </g>
   </g>
  </g>
  <g id="axes_2">
   <g id="matplotlib.axis_3">
    <g id="ytick_8">
     <g id="line2d_20">
      <defs>
       <path id="mc6ac78fb44" d="M 0 0 
L 3.5 0 
" style="stroke: #000000; stroke-width: 0.8"/>
      </defs>
      <g>
       <use xlink:href="#mc6ac78fb44" x="668.95" y="260.12" style="stroke: #000000; stroke-width: 0.8"/>
      </g>
     </g>
     <g id="text_39">
      <!-- 0 -->
      <g transform="translate(675.95 263.919219) scale(0.1 -0.1)">
       <use xlink:href="#DejaVuSans-30"/>
      </g>
     </g>
    </g>
    <g id="ytick_9">
     <g id="line2d_21">
      <g>
       <use xlink:href="#mc6ac78fb44" x="668.95" y="237.559759" style="stroke: #000000; stroke-width: 0.8"/>
      </g>
     </g>
     <g id="text_40">
      <!-- 100 -->
      <g transform="translate(675.95 241.358977) scale(0.1 -0.1)">
       <use xlink:href="#DejaVuSans-31"/>
       <use xlink:href="#DejaVuSans-30" transform="translate(63.623047 0)"/>
       <use xlink:href="#DejaVuSans-30" transform="translate(127.246094 0)"/>
      </g>
     </g>
    </g>
    <g id="ytick_10">
     <g id="line2d_22">
      <g>
       <use xlink:href="#mc6ac78fb44" x="668.95" y="214.999517" style="stroke: #000000; stroke-width: 0.8"/>
      </g>
     </g>
     <g id="text_41">
      <!-- 200 -->
      <g transform="translate(675.95 218.798736) scale(0.1 -0.1)">
       <use xlink:href="#DejaVuSans-32"/>
       <use xlink:href="#DejaVuSans-30" transform="translate(63.623047 0)"/>
       <use xlink:href="#DejaVuSans-30" transform="translate(127.246094 0)"/>
      </g>
     </g>
    </g>
    <g id="ytick_11">
     <g id="line2d_23">
      <g>
       <use xlink:href="#mc6ac78fb44" x="668.95" y="192.439276" style="stroke: #000000; stroke-width: 0.8"/>
      </g>
     </g>
     <g id="text_42">
      <!-- 300 -->
      <g transform="translate(675.95 196.238495) scale(0.1 -0.1)">
       <use xlink:href="#DejaVuSans-33"/>
       <use xlink:href="#DejaVuSans-30" transform="translate(63.623047 0)"/>
       <use xlink:href="#DejaVuSans-30" transform="translate(127.246094 0)"/>
      </g>
     </g>
    </g>
    <g id="ytick_12">
     <g id="line2d_24">
      <g>
       <use xlink:href="#mc6ac78fb44" x="668.95" y="169.879035" style="stroke: #000000; stroke-width: 0.8"/>
      </g>
     </g>
     <g id="text_43">
      <!-- 400 -->
      <g transform="translate(675.95 173.678253) scale(0.1 -0.1)">
       <use xlink:href="#DejaVuSans-34"/>
       <use xlink:href="#DejaVuSans-30" transform="translate(63.623047 0)"/>
       <use xlink:href="#DejaVuSans-30" transform="translate(127.246094 0)"/>
      </g>
     </g>
    </g>
    <g id="ytick_13">
     <g id="line2d_25">
      <g>
       <use xlink:href="#mc6ac78fb44" x="668.95" y="147.318793" style="stroke: #000000; stroke-width: 0.8"/>
      </g>
     </g>
     <g id="text_44">
      <!-- 500 -->
      <g transform="translate(675.95 151.118012) scale(0.1 -0.1)">
       <use xlink:href="#DejaVuSans-35"/>
       <use xlink:href="#DejaVuSans-30" transform="translate(63.623047 0)"/>
       <use xlink:href="#DejaVuSans-30" transform="translate(127.246094 0)"/>
      </g>
     </g>
    </g>
    <g id="ytick_14">
     <g id="line2d_26">
      <g>
       <use xlink:href="#mc6ac78fb44" x="668.95" y="124.758552" style="stroke: #000000; stroke-width: 0.8"/>
      </g>
     </g>
     <g id="text_45">
      <!-- 600 -->
      <g transform="translate(675.95 128.557771) scale(0.1 -0.1)">
       <use xlink:href="#DejaVuSans-36"/>
       <use xlink:href="#DejaVuSans-30" transform="translate(63.623047 0)"/>
       <use xlink:href="#DejaVuSans-30" transform="translate(127.246094 0)"/>
      </g>
     </g>
    </g>
    <g id="ytick_15">
     <g id="line2d_27">
      <g>
       <use xlink:href="#mc6ac78fb44" x="668.95" y="102.19831" style="stroke: #000000; stroke-width: 0.8"/>
      </g>
     </g>
     <g id="text_46">
      <!-- 700 -->
      <g transform="translate(675.95 105.997529) scale(0.1 -0.1)">
       <use xlink:href="#DejaVuSans-37"/>
       <use xlink:href="#DejaVuSans-30" transform="translate(63.623047 0)"/>
       <use xlink:href="#DejaVuSans-30" transform="translate(127.246094 0)"/>
      </g>
     </g>
    </g>
    <g id="ytick_16">
     <g id="line2d_28">
      <g>
       <use xlink:href="#mc6ac78fb44" x="668.95" y="79.638069" style="stroke: #000000; stroke-width: 0.8"/>
      </g>
     </g>
     <g id="text_47">
      <!-- 800 -->
      <g transform="translate(675.95 83.437288) scale(0.1 -0.1)">
       <use xlink:href="#DejaVuSans-38"/>
       <use xlink:href="#DejaVuSans-30" transform="translate(63.623047 0)"/>
       <use xlink:href="#DejaVuSans-30" transform="translate(127.246094 0)"/>
      </g>
     </g>
    </g>
    <g id="text_48">
     <!-- Bytes per Second (MB/s) -->
     <g transform="translate(706.635938 225.219787) rotate(-90) scale(0.1 -0.1)">
      <defs>
       <path id="DejaVuSans-42" d="M 1259 2228 
L 1259 519 
L 2272 519 
Q 2781 519 3026 730 
Q 3272 941 3272 1375 
Q 3272 1813 3026 2020 
Q 2781 2228 2272 2228 
L 1259 2228 
z
M 1259 4147 
L 1259 2741 
L 2194 2741 
Q 2656 2741 2882 2914 
Q 3109 3088 3109 3444 
Q 3109 3797 2882 3972 
Q 2656 4147 2194 4147 
L 1259 4147 
z
M 628 4666 
L 2241 4666 
Q 2963 4666 3353 4366 
Q 3744 4066 3744 3513 
Q 3744 3084 3544 2831 
Q 3344 2578 2956 2516 
Q 3422 2416 3680 2098 
Q 3938 1781 3938 1306 
Q 3938 681 3513 340 
Q 3088 0 2303 0 
L 628 0 
L 628 4666 
z
" transform="scale(0.015625)"/>
       <path id="DejaVuSans-74" d="M 1172 4494 
L 1172 3500 
L 2356 3500 
L 2356 3053 
L 1172 3053 
L 1172 1153 
Q 1172 725 1289 603 
Q 1406 481 1766 481 
L 2356 481 
L 2356 0 
L 1766 0 
Q 1100 0 847 248 
Q 594 497 594 1153 
L 594 3053 
L 172 3053 
L 172 3500 
L 594 3500 
L 594 4494 
L 1172 4494 
z
" transform="scale(0.015625)"/>
      </defs>
      <use xlink:href="#DejaVuSans-42"/>
      <use xlink:href="#DejaVuSans-79" transform="translate(68.603516 0)"/>
      <use xlink:href="#DejaVuSans-74" transform="translate(127.783203 0)"/>
      <use xlink:href="#DejaVuSans-65" transform="translate(166.992188 0)"/>
      <use xlink:href="#DejaVuSans-73" transform="translate(228.515625 0)"/>
      <use xlink:href="#DejaVuSans-20" transform="translate(280.615234 0)"/>
      <use xlink:href="#DejaVuSans-70" transform="translate(312.402344 0)"/>
      <use xlink:href="#DejaVuSans-65" transform="translate(375.878906 0)"/>
      <use xlink:href="#DejaVuSans-72" transform="translate(437.402344 0)"/>
      <use xlink:href="#DejaVuSans-20" transform="translate(478.515625 0)"/>
      <use xlink:href="#DejaVuSans-53" transform="translate(510.302734 0)"/>
      <use xlink:href="#DejaVuSans-65" transform="translate(573.779297 0)"/>
      <use xlink:href="#DejaVuSans-63" transform="translate(635.302734 0)"/>
      <use xlink:href="#DejaVuSans-6f" transform="translate(690.283203 0)"/>
      <use xlink:href="#DejaVuSans-6e" transform="translate(751.464844 0)"/>
      <use xlink:href="#DejaVuSans-64" transform="translate(814.84375 0)"/>
      <use xlink:href="#DejaVuSans-20" transform="translate(878.320312 0)"/>
      <use xlink:href="#DejaVuSans-28" transform="translate(910.107422 0)"/>
      <use xlink:href="#DejaVuSans-4d" transform="translate(949.121094 0)"/>
      <use xlink:href="#DejaVuSans-42" transform="translate(1035.400391 0)"/>
      <use xlink:href="#DejaVuSans-2f" transform="translate(1104.003906 0)"/>
      <use xlink:href="#DejaVuSans-73" transform="translate(1137.695312 0)"/>
      <use xlink:href="#DejaVuSans-29" transform="translate(1189.794922 0)"/>
     </g>
    </g>
   </g>
   <g id="patch_32">
    <path d="M 44.66 260.12 
L 44.66 67.4352 
" style="fill: none; stroke: #000000; stroke-width: 0.8; stroke-linejoin: miter; stroke-linecap: square"/>
   </g>
   <g id="patch_33">
    <path d="M 668.95 260.12 
L 668.95 67.4352 
" style="fill: none; stroke: #000000; stroke-width: 0.8; stroke-linejoin: miter; stroke-linecap: square"/>
   </g>
   <g id="patch_34">
    <path d="M 44.66 260.12 
L 668.95 260.12 
" style="fill: none; stroke: #000000; stroke-width: 0.8; stroke-linejoin: miter; stroke-linecap: square"/>
   </g>
   <g id="patch_35">
    <path d="M 44.66 67.4352 
L 668.95 67.4352 
" style="fill: none; stroke: #000000; stroke-width: 0.8; stroke-linejoin: miter; stroke-linecap: square"/>
   </g>
  </g>
  <g id="text_49">
   <!-- Receive Throughput vs Number of Connections -->
   <g transform="translate(171.31625 19.3575) scale(0.16 -0.16)">
    <defs>
     <path id="DejaVuSans-76" d="M 191 3500 
L 800 3500 
L 1894 563 
L 2988 3500 
L 3597 3500 
L 2284 0 
L 1503 0 
L 191 3500 
z
" transform="scale(0.015625)"/>
     <path id="DejaVuSans-54" d="M -19 4666 
L 3928 4666 
L 3928 4134 
L 2272 4134 
L 2272 0 
L 1638 0 
L 1638 4134 
L -19 4134 
L -19 4666 
z
" transform="scale(0.015625)"/>
     <path id="DejaVuSans-68" d="M 3513 2113 
L 3513 0 
L 2938 0 
L 2938 2094 
Q 2938 2591 2744 2837 
Q 2550 3084 2163 3084 
Q 1697 3084 1428 2787 
Q 1159 2491 1159 1978 
L 1159 0 
L 581 0 
L 581 4863 
L 1159 4863 
L 1159 2956 
Q 1366 3272 1645 3428 
Q 1925 3584 2291 3584 
Q 2894 3584 3203 3211 
Q 3513 2838 3513 2113 
z
" transform="scale(0.015625)"/>
     <path id="DejaVuSans-6d" d="M 3328 2828 
Q 3544 3216 3844 3400 
Q 4144 3584 4550 3584 
Q 5097 3584 5394 3201 
Q 5691 2819 5691 2113 
L 5691 0 
L 5113 0 
L 5113 2094 
Q 5113 2597 4934 2840 
Q 4756 3084 4391 3084 
Q 3944 3084 3684 2787 
Q 3425 2491 3425 1978 
L 3425 0 
L 2847 0 
L 2847 2094 
Q 2847 2600 2669 2842 
Q 2491 3084 2119 3084 
Q 1678 3084 1418 2786 
Q 1159 2488 1159 1978 
L 1159 0 
L 581 0 
L 581 3500 
L 1159 3500 
L 1159 2956 
Q 1356 3278 1631 3431 
Q 1906 3584 2284 3584 
Q 2666 3584 2933 3390 
Q 3200 3197 3328 2828 
z
" transform="scale(0.015625)"/>
     <path id="DejaVuSans-66" d="M 2375 4863 
L 2375 4384 
L 1825 4384 
Q 1516 4384 1395 4259 
Q 1275 4134 1275 3809 
L 1275 3500 
L 2222 3500 
L 2222 3053 
L 1275 3053 
L 1275 0 
L 697 0 
L 697 3053 
L 147 3053 
L 147 3500 
L 697 3500 
L 697 3744 
Q 697 4328 969 4595 
Q 1241 4863 1831 4863 
L 2375 4863 
z
" transform="scale(0.015625)"/>
    </defs>
    <use xlink:href="#DejaVuSans-52"/>
    <use xlink:href="#DejaVuSans-65" transform="translate(64.982422 0)"/>
    <use xlink:href="#DejaVuSans-63" transform="translate(126.505859 0)"/>
    <use xlink:href="#DejaVuSans-65" transform="translate(181.486328 0)"/>
    <use xlink:href="#DejaVuSans-69" transform="translate(243.009766 0)"/>
    <use xlink:href="#DejaVuSans-76" transform="translate(270.792969 0)"/>
    <use xlink:href="#DejaVuSans-65" transform="translate(329.972656 0)"/>
    <use xlink:href="#DejaVuSans-20" transform="translate(391.496094 0)"/>
    <use xlink:href="#DejaVuSans-54" transform="translate(423.283203 0)"/>
    <use xlink:href="#DejaVuSans-68" transform="translate(484.367188 0)"/>
    <use xlink:href="#DejaVuSans-72" transform="translate(547.746094 0)"/>
    <use xlink:href="#DejaVuSans-6f" transform="translate(586.609375 0)"/>
    <use xlink:href="#DejaVuSans-75" transform="translate(647.791016 0)"/>
    <use xlink:href="#DejaVuSans-67" transform="translate(711.169922 0)"/>
    <use xlink:href="#DejaVuSans-68" transform="translate(774.646484 0)"/>
    <use xlink:href="#DejaVuSans-70" transform="translate(838.025391 0)"/>
    <use xlink:href="#DejaVuSans-75" transform="translate(901.501953 0)"/>
    <use xlink:href="#DejaVuSans-74" transform="translate(964.880859 0)"/>
    <use xlink:href="#DejaVuSans-20" transform="translate(1004.089844 0)"/>
    <use xlink:href="#DejaVuSans-76" transform="translate(1035.876953 0)"/>
    <use xlink:href="#DejaVuSans-73" transform="translate(1095.056641 0)"/>
    <use xlink:href="#DejaVuSans-20" transform="translate(1147.15625 0)"/>
    <use xlink:href="#DejaVuSans-4e" transform="translate(1178.943359 0)"/>
    <use xlink:href="#DejaVuSans-75" transform="translate(1253.748047 0)"/>
    <use xlink:href="#DejaVuSans-6d" transform="translate(1317.126953 0)"/>
    <use xlink:href="#DejaVuSans-62" transform="translate(1414.539062 0)"/>
    <use xlink:href="#DejaVuSans-65" transform="translate(1478.015625 0)"/>
    <use xlink:href="#DejaVuSans-72" transform="translate(1539.539062 0)"/>
    <use xlink:href="#DejaVuSans-20" transform="translate(1580.652344 0)"/>
    <use xlink:href="#DejaVuSans-6f" transform="translate(1612.439453 0)"/>
    <use xlink:href="#DejaVuSans-66" transform="translate(1673.621094 0)"/>
    <use xlink:href="#DejaVuSans-20" transform="translate(1708.826172 0)"/>
    <use xlink:href="#DejaVuSans-43" transform="translate(1740.613281 0)"/>
    <use xlink:href="#DejaVuSans-6f" transform="translate(1810.4375 0)"/>
    <use xlink:href="#DejaVuSans-6e" transform="translate(1871.619141 0)"/>
    <use xlink:href="#DejaVuSans-6e" transform="translate(1934.998047 0)"/>
    <use xlink:href="#DejaVuSans-65" transform="translate(1998.376953 0)"/>
    <use xlink:href="#DejaVuSans-63" transform="translate(2059.900391 0)"/>
    <use xlink:href="#DejaVuSans-74" transform="translate(2114.880859 0)"/>
    <use xlink:href="#DejaVuSans-69" transform="translate(2154.089844 0)"/>
    <use xlink:href="#DejaVuSans-6f" transform="translate(2181.873047 0)"/>
    <use xlink:href="#DejaVuSans-6e" transform="translate(2243.054688 0)"/>
    <use xlink:href="#DejaVuSans-73" transform="translate(2306.433594 0)"/>
   </g>
  </g>
 </g>
 <defs>
  <clipPath id="pa8cdb94fa6">
   <rect x="44.66" y="67.4352" width="624.29" height="192.6848"/>
  </clipPath>
 </defs>
</svg>
